<svg xmlns="http://www.w3.org/2000/svg" viewBox="0 0 55 55">
  <defs>
    <style>
      .cls-1 {
        fill: #fff;
      }
    </style>
  </defs>
  <g id="circle-rays">
    <g>
      <polygon class="cls-1" points="28.5 2.5 27.5 27.5 26.5 2.5 28.5 2.5 28.5 2.5"/>
      <polygon class="cls-1" points="19.89 3.67 27.5 27.5 18.01 4.35 19.89 3.67 19.89 3.67"/>
      <polygon class="cls-1" points="12.2 7.71 27.5 27.5 10.66 8.99 12.2 7.71 12.2 7.71"/>
      <polygon class="cls-1" points="6.35 14.13 27.5 27.5 5.35 15.87 6.35 14.13 6.35 14.13"/>
      <polygon class="cls-1" points="3.05 22.17 27.5 27.5 2.71 24.14 3.05 22.17 3.05 22.17"/>
      <polygon class="cls-1" points="2.71 30.86 27.5 27.5 3.05 32.83 2.71 30.86 2.71 30.86"/>
      <polygon class="cls-1" points="5.35 39.13 27.5 27.5 6.35 40.87 5.35 39.13 5.35 39.13"/>
      <polygon class="cls-1" points="10.66 46.01 27.5 27.5 12.2 47.29 10.66 46.01 10.66 46.01"/>
      <polygon class="cls-1" points="18.01 50.65 27.5 27.5 19.89 51.33 18.01 50.65 18.01 50.65"/>
      <polygon class="cls-1" points="26.5 52.5 27.5 27.5 28.5 52.5 26.5 52.5 26.5 52.5"/>
      <polygon class="cls-1" points="35.11 51.33 27.5 27.5 36.99 50.65 35.11 51.33 35.11 51.33"/>
      <polygon class="cls-1" points="42.8 47.29 27.5 27.5 44.34 46.01 42.8 47.29 42.8 47.29"/>
      <polygon class="cls-1" points="48.65 40.87 27.5 27.5 49.65 39.13 48.65 40.87 48.65 40.87"/>
      <polygon class="cls-1" points="51.95 32.83 27.5 27.5 52.29 30.86 51.95 32.83 51.95 32.83"/>
      <polygon class="cls-1" points="52.29 24.14 27.5 27.5 51.95 22.17 52.29 24.14 52.29 24.14"/>
      <polygon class="cls-1" points="49.65 15.87 27.5 27.5 48.65 14.13 49.65 15.87 49.65 15.87"/>
      <polygon class="cls-1" points="44.34 8.99 27.5 27.5 42.8 7.71 44.34 8.99 44.34 8.99"/>
      <polygon class="cls-1" points="36.99 4.35 27.5 27.5 35.11 3.67 36.99 4.35 36.99 4.35"/>
      <polygon class="cls-1" points="8.99 10.66 27.5 27.5 7.71 12.2 8.99 10.66 8.99 10.66"/>
      <polygon class="cls-1" points="4.35 18.01 27.5 27.5 3.67 19.89 4.35 18.01 4.35 18.01"/>
      <polygon class="cls-1" points="2.5 26.5 27.5 27.5 2.5 28.5 2.5 26.5 2.5 26.5"/>
      <polygon class="cls-1" points="3.67 35.11 27.5 27.5 4.35 36.99 3.67 35.11 3.67 35.11"/>
      <polygon class="cls-1" points="7.71 42.8 27.5 27.5 8.99 44.34 7.71 42.8 7.71 42.8"/>
      <polygon class="cls-1" points="14.13 48.65 27.5 27.5 15.87 49.65 14.13 48.65 14.13 48.65"/>
      <polygon class="cls-1" points="22.17 51.95 27.5 27.5 24.14 52.29 22.17 51.95 22.17 51.95"/>
      <polygon class="cls-1" points="30.86 52.29 27.5 27.5 32.83 51.95 30.86 52.29 30.86 52.29"/>
      <polygon class="cls-1" points="39.13 49.65 27.5 27.5 40.87 48.65 39.13 49.65 39.13 49.65"/>
      <polygon class="cls-1" points="46.01 44.34 27.5 27.5 47.29 42.8 46.01 44.34 46.01 44.34"/>
      <polygon class="cls-1" points="50.65 36.99 27.5 27.5 51.33 35.11 50.65 36.99 50.65 36.99"/>
      <polygon class="cls-1" points="52.5 28.5 27.5 27.5 52.5 26.5 52.5 28.5 52.5 28.5"/>
      <polygon class="cls-1" points="51.33 19.89 27.5 27.5 50.65 18.01 51.33 19.89 51.33 19.89"/>
      <polygon class="cls-1" points="47.29 12.2 27.5 27.5 46.01 10.66 47.29 12.2 47.29 12.2"/>
      <polygon class="cls-1" points="40.87 6.35 27.5 27.5 39.13 5.35 40.87 6.35 40.87 6.35"/>
      <polygon class="cls-1" points="32.83 3.05 27.5 27.5 30.86 2.71 32.83 3.05 32.83 3.05"/>
      <polygon class="cls-1" points="24.14 2.71 27.5 27.5 22.17 3.05 24.14 2.71 24.14 2.71"/>
      <polygon class="cls-1" points="15.87 5.35 27.5 27.5 14.13 6.35 15.87 5.35 15.87 5.35"/>
    </g>
  </g>
</svg>
