<?xml version="1.0" encoding="utf-8"?>
<!-- Generator: Adobe Illustrator 26.2.1, SVG Export Plug-In . SVG Version: 6.00 Build 0)  -->
<svg version="1.1" id="diamondDesign" xmlns="http://www.w3.org/2000/svg" xmlns:xlink="http://www.w3.org/1999/xlink" x="0px"
	 y="0px" viewBox="0 0 40 40" style="enable-background:new 0 0 40 40;" xml:space="preserve">
<style type="text/css">
	.st0{fill:none;stroke:#FFFFFF;stroke-width:0.8727;stroke-miterlimit:10;}
	.st1{fill:none;stroke:#D35B2B;stroke-width:0.8727;stroke-miterlimit:10;}
	.st2{fill:none;stroke:#CB1860;stroke-width:0.8727;stroke-linecap:round;stroke-miterlimit:10;}
</style>
<g>
	<path id="diamondPath" class="st0" d="M20.1,2.9c4,7.1,9.9,13.1,17,17c0.1,0.1,0.1,0.2,0,0.3c-7.1,4-13.1,9.9-17,17
		c-0.1,0.1-0.2,0.1-0.3,0c-4-7.1-9.9-13.1-17-17c-0.1-0.1-0.1-0.2,0-0.3c7.1-4,13.1-9.9,17-17C19.9,2.8,20.1,2.8,20.1,2.9z"/>
	<path class="st1" d="M20,4.5L20,4.5c-1,0-1.8-0.8-1.8-1.8v0c0-1,0.8-1.8,1.8-1.8h0c1,0,1.8,0.8,1.8,1.8v0C21.8,3.6,21,4.5,20,4.5z"
		/>
	<path class="st1" d="M20,39.2L20,39.2c-1,0-1.8-0.8-1.8-1.8v0c0-1,0.8-1.8,1.8-1.8h0c1,0,1.8,0.8,1.8,1.8v0
		C21.8,38.4,21,39.2,20,39.2z"/>
	<path class="st1" d="M2.7,21.9L2.7,21.9c-1,0-1.8-0.8-1.8-1.8v0c0-1,0.8-1.8,1.8-1.8h0c1,0,1.8,0.8,1.8,1.8v0
		C4.6,21.1,3.7,21.9,2.7,21.9z"/>
	<path class="st1" d="M37.3,21.9L37.3,21.9c-1,0-1.8-0.8-1.8-1.8v0c0-1,0.8-1.8,1.8-1.8l0,0c1,0,1.8,0.8,1.8,1.8v0
		C39.1,21.1,38.3,21.9,37.3,21.9z"/>
	<line class="st2" x1="20" y1="18.3" x2="20" y2="21.9"/>
	<line class="st2" x1="21.8" y1="20.1" x2="18.2" y2="20.1"/>
</g>
</svg>
