<?xml version="1.0" encoding="utf-8"?>
<!-- Generator: Adobe Illustrator 26.2.1, SVG Export Plug-In . SVG Version: 6.00 Build 0)  -->
<svg version="1.1" id="diamonShape" xmlns="http://www.w3.org/2000/svg" xmlns:xlink="http://www.w3.org/1999/xlink" x="0px"
	 y="0px" viewBox="0 0 90 40" style="enable-background:new 0 0 90 40;" xml:space="preserve">
<style type="text/css">
	.st0{fill:#FFFFFF;}
</style>
<path id="diamondPath" class="st0" d="M29,5.5c-2.6,8.8-2.6,18.2,0,27c-8.8-2.6-18.2-2.6-27,0c2.6-8.8,2.6-18.2,0-27
	C10.8,8,20.3,8,29,5.5z"/>
<path id="diamondPath_00000144300112965277466960000013460605969758671008_" class="st0" d="M58.5,5.5c-2.6,8.8-2.6,18.2,0,27
	c-8.8-2.6-18.2-2.6-27,0c2.6-8.8,2.6-18.2,0-27C40.3,8,49.7,8,58.5,5.5z"/>
<path id="diamondPath_00000013888278455953205120000004686035291672874677_" class="st0" d="M88,5.5c-2.6,8.8-2.6,18.2,0,27
	c-8.8-2.6-18.2-2.6-27,0c2.6-8.8,2.6-18.2,0-27C69.7,8,79.2,8,88,5.5z"/>
</svg>
