<?xml version="1.0" encoding="utf-8"?>
<!-- Generator: Adobe Illustrator 26.2.1, SVG Export Plug-In . SVG Version: 6.00 Build 0)  -->
<svg version="1.1" id="doubleDiamondShape" xmlns="http://www.w3.org/2000/svg" xmlns:xlink="http://www.w3.org/1999/xlink" x="0px"
	 y="0px" viewBox="0 0 80 40" style="enable-background:new 0 0 80 40;" xml:space="preserve">
<style type="text/css">
	.st0{fill:#FFFFFF;}
</style>
<path class="st0" d="M79,19.8C70.9,15.3,64,8.5,59.5,0.3c-0.1-0.1-0.2-0.1-0.3,0C54.7,8.3,48,15.1,40,19.6
	C32,15.1,25.3,8.3,20.8,0.3c-0.1-0.1-0.2-0.1-0.3,0C16,8.5,9.1,15.3,1,19.8c-0.1,0.1-0.1,0.2,0,0.3c8.2,4.6,15,11.4,19.6,19.6
	c0.1,0.1,0.2,0.1,0.3,0c4.5-8,11.2-14.8,19.2-19.3c8,4.5,14.7,11.3,19.2,19.3c0.1,0.1,0.2,0.1,0.3,0c4.6-8.2,11.4-15,19.6-19.6
	C79.2,20.1,79.2,19.9,79,19.8z"/>
</svg>
