<svg id="Layer_1" data-name="Layer 1" xmlns="http://www.w3.org/2000/svg" xmlns:xlink="http://www.w3.org/1999/xlink" viewBox="0 0 90.37 42.5"><defs><style>.cls-1{fill:url(#linear-gradient);}</style><linearGradient id="linear-gradient" x1="-2.65" y1="4.58" x2="95.66" y2="51.4" gradientUnits="userSpaceOnUse"><stop offset="0" stop-color="#ff0061"/><stop offset="1" stop-color="#d35b2b"/></linearGradient></defs><path class="cls-1" d="M18.47,27.64v.17L19.71,29l0,11.92-1.28,1.06v.16h7.31v-.16l-1.25-1.06L24.52,29V27.64Zm44,12.1a19.3,19.3,0,0,1-2.06-4.44,17,17,0,0,1-1.11-5q0-1.77,1.11-1.77c1.25,0,2.58,2,4,5.92a17.73,17.73,0,0,1,1.17,5.11c0,.9-.23,1.45-.68,1.63a2.93,2.93,0,0,1-.41,0c-.65,0-1.32-.49-2-1.48M59.82,28a7.83,7.83,0,0,0-3,2.45,7.41,7.41,0,0,0-1.4,4.76,7.84,7.84,0,0,0,.87,3.66,6.71,6.71,0,0,0,2.47,2.68,6.88,6.88,0,0,0,3.69,1,7.39,7.39,0,0,0,2.54-.69A8,8,0,0,0,68,39.37a7.26,7.26,0,0,0,1.4-4.69,8.08,8.08,0,0,0-.87-3.74,6.72,6.72,0,0,0-2.49-2.69,6.92,6.92,0,0,0-3.7-1,7.19,7.19,0,0,0-2.53.7M30.94,28a8,8,0,0,0-3.11,2.45A7.22,7.22,0,0,0,26.45,35a7.72,7.72,0,0,0,1,4,6.54,6.54,0,0,0,2.71,2.58,8.37,8.37,0,0,0,3.91.9,4.32,4.32,0,0,0,2.12-1.18,30.7,30.7,0,0,0,3.2-3.14L39.24,38a5.81,5.81,0,0,1-2.64.76,5.07,5.07,0,0,1-3.43-1.35,9.38,9.38,0,0,1-2.4-3.27,8.64,8.64,0,0,1-.87-3.53A2.76,2.76,0,0,1,30.29,29a1.24,1.24,0,0,1,1.05-.52c.7,0,1.35.54,1.94,1.64a10.27,10.27,0,0,1,1.12,3.76l.14.08,4.54-3.86A3.5,3.5,0,0,0,38.27,29a5.43,5.43,0,0,0-1.79-1.2,6.64,6.64,0,0,0-2.7-.51,7.78,7.78,0,0,0-2.84.72m58.56-.89-1.27,1.06a7.67,7.67,0,0,0-3.81-.92,5.91,5.91,0,0,0-3.88,1.23,4.07,4.07,0,0,0-1.49,3.28A3.73,3.73,0,0,0,79.78,34,8.92,8.92,0,0,0,82,36l3.18,2.12a13.93,13.93,0,0,1,2.08,1.53,1.55,1.55,0,0,1,.56,1,.81.81,0,0,1-.25.64,1,1,0,0,1-.62.2,5.5,5.5,0,0,1-2.62-.92A15.05,15.05,0,0,1,81.22,38a15.52,15.52,0,0,1-2.63-3.68h-.17L79,41.93a5,5,0,0,1,.9-.08A6.11,6.11,0,0,1,81,42c.38.08.64.12.79.14.58.13,1.06.22,1.45.27a9.07,9.07,0,0,0,1.35.08,7.11,7.11,0,0,0,3.39-.7A4.31,4.31,0,0,0,89.83,40a4.62,4.62,0,0,0,.54-2.14,3.42,3.42,0,0,0-.46-1.8,5.21,5.21,0,0,0-1.16-1.36c-.46-.39-1.11-.87-2-1.45l-3.45-2.47A7.71,7.71,0,0,1,82,29.72a1.34,1.34,0,0,1-.42-.91c0-.49.3-.73.9-.73a4.21,4.21,0,0,1,1.91.65,11.63,11.63,0,0,1,2.49,2,19.41,19.41,0,0,1,2.57,3.32h.19v-7ZM9.88,23.76v.16a21.25,21.25,0,0,1,4,6,16.17,16.17,0,0,1,1.56,6.75v1.6h-.16L6.46,23.76H0v.14l1.85,2.87V42.09h6.3v-.16A21.11,21.11,0,0,1,4,36.21a15.26,15.26,0,0,1-1.49-6.75V27.67h.14l8.88,14.47h4.59V23.76ZM20.3,22.19a2,2,0,0,0-.67,1.57,2.08,2.08,0,0,0,.67,1.62,2.52,2.52,0,0,0,1.75.61,2.35,2.35,0,0,0,1.67-.61,2.17,2.17,0,0,0,.64-1.62,2.06,2.06,0,0,0-.64-1.57,2.34,2.34,0,0,0-1.67-.6,2.51,2.51,0,0,0-1.75.6M45.43,21,39.1,23v.16l1.71.6V40.87l-1.25,1.06v.16h7.31v-.16l-1.28-1.06V31.58a2,2,0,0,1,1.66-1c1,0,1.49.59,1.49,1.76v8.53l-1.27,1.06v.16h7.3v-.16l-1.25-1.06,0-8.85a5.51,5.51,0,0,0-1-3.44,3.71,3.71,0,0,0-3.15-1.32c-.76,0-2,1.17-3.8,3.51V21Zm30.41,0L69.52,23v.16l1.71.6V40.87L70,41.93v.16h7.3v-.16L76,40.87V21ZM37.07,7.41h0q0-.31,0-.87a3.73,3.73,0,0,0-.56-2.33A1.88,1.88,0,0,0,35,3.53,2.33,2.33,0,0,0,33.67,4a6,6,0,0,0-1.17,1.1c-.36.45-.84,1.1-1.43,2l-.58.81L30.6,8l2-1V17.11l-1.28,1.06v.16h7.31v-.16l-1.25-1.06V7.74A1.9,1.9,0,0,1,39,6.82c1,0,1.47.58,1.47,1.76v8.53l-1.25,1.06v.16h7.3v-.16l-1.27-1.06,0-8.85a5.51,5.51,0,0,0-1-3.44A3.71,3.71,0,0,0,41.17,3.5c-.84,0-2.2,1.31-4.1,3.91M21.45,15a1.51,1.51,0,0,1-.38-1.13,2.88,2.88,0,0,1,.72-1.79,11.27,11.27,0,0,1,2.41-2l-.06,3.86a2.89,2.89,0,0,1-.9,1.1,1.74,1.74,0,0,1-1,.37,1.21,1.21,0,0,1-.82-.37m1.4-11.09A10.24,10.24,0,0,0,19.52,6a13.94,13.94,0,0,0-3.31,4.72l.08.13,5-1.41a8.87,8.87,0,0,1-.49-2.63,2.17,2.17,0,0,1,.35-1.34,1.19,1.19,0,0,1,.95-.43c.63,0,1.14.4,1.52,1.21a7.52,7.52,0,0,1,.55,3.22l-3,1.3a14,14,0,0,0-3.45,2.15,3.67,3.67,0,0,0-1.28,2.85,2.74,2.74,0,0,0,.86,2.13,3.27,3.27,0,0,0,2.27.77,3.82,3.82,0,0,0,2.74-1,8.66,8.66,0,0,0,1.87-2.8h.14a7.82,7.82,0,0,0,0,.79A3.77,3.77,0,0,0,24.89,18a1.88,1.88,0,0,0,1.53.68,2.5,2.5,0,0,0,1.79-.82,19.55,19.55,0,0,0,2.09-2.66l.6-.84-.11-.14-2,1v-.4L29,10c0-.74.08-1.45.08-2.12a7.47,7.47,0,0,0-.33-2.4A2.64,2.64,0,0,0,27.56,4,5,5,0,0,0,25,3.48a7.92,7.92,0,0,0-2.16.46m28.78.26a7.81,7.81,0,0,0-3.1,2.45,7.17,7.17,0,0,0-1.39,4.62,7.81,7.81,0,0,0,1,4,6.54,6.54,0,0,0,2.71,2.58,8.4,8.4,0,0,0,3.91.9,4.28,4.28,0,0,0,2.12-1.18,31.7,31.7,0,0,0,3.21-3.14l-.14-.16A5.81,5.81,0,0,1,57.3,15a5.07,5.07,0,0,1-3.44-1.35,9.38,9.38,0,0,1-2.4-3.27,8.64,8.64,0,0,1-.87-3.53A2.76,2.76,0,0,1,51,5.25,1.25,1.25,0,0,1,52,4.72c.7,0,1.35.55,1.94,1.65a10.47,10.47,0,0,1,1.13,3.76l.13.08,4.54-3.86A3.6,3.6,0,0,0,59,5.19,5.59,5.59,0,0,0,57.17,4a6.64,6.64,0,0,0-2.7-.51,7.78,7.78,0,0,0-2.84.72M64,7.14a3.2,3.2,0,0,1,.42-1.79,1.23,1.23,0,0,1,1-.63,1.73,1.73,0,0,1,1.34.74,5.36,5.36,0,0,1,1,2,10.64,10.64,0,0,1,.4,2.81H64.63A8.76,8.76,0,0,1,64,7.14m.91-3a7.92,7.92,0,0,0-3.16,2.47,7.28,7.28,0,0,0-1.41,4.67,7.48,7.48,0,0,0,1,3.93,6.83,6.83,0,0,0,2.77,2.58,8.56,8.56,0,0,0,3.94.91q1.31,0,5.19-4.27l-.14-.13a8.77,8.77,0,0,1-1.37.58,4,4,0,0,1-1.18.18,5.17,5.17,0,0,1-3.42-1.22,8.45,8.45,0,0,1-2.31-3.13h3.47A5.69,5.69,0,0,0,70,10.31a11.64,11.64,0,0,0,2.09-1q.93-.58.93-.93a5.4,5.4,0,0,0-1.5-3.52,5,5,0,0,0-3.77-1.34,8.12,8.12,0,0,0-2.87.7M.52,0V.16L1.93,1.68,2,16.75.49,18.17v.16H15V9.5h-.16l-.76,1.44c-.92,1.74-1.66,3.06-2.2,4A8.69,8.69,0,0,1,10.17,17a3.12,3.12,0,0,1-2.05.8h-.9V1.68L8.63.16V0Z"/></svg>