<?xml version="1.0" encoding="utf-8"?>
<!-- Generator: Adobe Illustrator 26.2.1, SVG Export Plug-In . SVG Version: 6.00 Build 0)  -->
<svg version="1.1" xmlns="http://www.w3.org/2000/svg" xmlns:xlink="http://www.w3.org/1999/xlink" x="0px" y="0px"
	 viewBox="0 0 120 120" style="enable-background:new 0 0 120 120;" xml:space="preserve">
<style type="text/css">
	.st0{fill:#FFFFFF;}
</style>
<g id="ring">
	<path d="M60,117.5C28.3,117.5,2.5,91.7,2.5,60C2.5,28.3,28.3,2.5,60,2.5c31.7,0,57.5,25.8,57.5,57.5
		C117.5,91.7,91.7,117.5,60,117.5z M60,23.5c-20.1,0-36.5,16.4-36.5,36.5S39.9,96.5,60,96.5S96.5,80.1,96.5,60S80.1,23.5,60,23.5z"
		/>
</g>
<g id="text">
	<path class="st0" d="M80.9,13.8l-0.5,0.9l0,0c1-0.5,2-0.4,3,0.1c0.6,0.3,1.1,0.8,1.5,1.4c0.4,0.6,0.5,1.3,0.5,2
		c0,0.8-0.2,1.6-0.6,2.4c-0.4,0.8-0.9,1.5-1.6,1.9s-1.3,0.7-2,0.8c-0.7,0.1-1.3-0.1-2-0.4c-1.1-0.5-1.7-1.4-1.8-2.4l0,0L75.6,24
		l-1.2-0.6l5.2-10.2L80.9,13.8z M79.7,21.8c0.5,0.3,1,0.3,1.5,0.2c0.5-0.1,1-0.3,1.4-0.7c0.4-0.4,0.7-0.8,1-1.3
		c0.3-0.5,0.4-1.1,0.5-1.6s0-1-0.2-1.5c-0.2-0.5-0.6-0.8-1.1-1.1c-0.7-0.4-1.4-0.4-2.1,0c-0.7,0.3-1.3,0.9-1.7,1.8
		c-0.5,0.9-0.6,1.7-0.5,2.5C78.6,20.8,79,21.4,79.7,21.8z M92.4,20.8l-0.8,1.1l0,0c-0.1-0.1-0.3-0.3-0.4-0.4c-0.6-0.5-1.3-0.6-2-0.5
		c-0.7,0.1-1.3,0.6-1.8,1.2l-2.7,3.7l-1.1-0.8l5.1-6.9l1.1,0.8l-1,1.4l0,0c0.6-0.3,1.1-0.5,1.6-0.6c0.5,0,1,0.1,1.5,0.5
		C92.1,20.4,92.3,20.6,92.4,20.8z M92.4,30.9c0.5,0,1-0.1,1.4-0.3l0.9,1c-0.8,0.4-1.6,0.6-2.4,0.5c-0.8-0.1-1.6-0.5-2.3-1.2
		c-0.6-0.6-1-1.3-1.2-2c-0.2-0.7-0.1-1.4,0.1-2.2c0.3-0.7,0.7-1.4,1.3-2c1-1,2.1-1.5,3.2-1.5c1.1,0,2.1,0.4,3,1.3
		c0.9,0.9,1.3,2,1.2,3c-0.1,1.1-0.8,2.2-1.9,3.2L91,25.9c-0.4,0.4-0.7,0.8-0.8,1.3c-0.2,0.5-0.2,1-0.1,1.4c0.1,0.5,0.4,1,0.8,1.4
		C91.3,30.5,91.9,30.8,92.4,30.9z M94.3,24.5c-0.5-0.1-0.9-0.2-1.3-0.1c-0.4,0.1-0.8,0.3-1.2,0.6l3.8,3.9c0.3-0.3,0.6-0.7,0.7-1.1
		c0.1-0.4,0.1-0.9,0-1.3c-0.1-0.4-0.4-0.9-0.7-1.2C95.2,24.9,94.8,24.6,94.3,24.5z M99.9,35.4c0.2,0.7,0.3,1.2,0.1,1.8
		c-0.1,0.5-0.5,1-1,1.3c-0.4,0.3-0.9,0.4-1.4,0.4c-0.5,0-1-0.2-1.4-0.5c-0.5-0.3-0.9-0.7-1.2-1.3c-0.7-1.1-1-2-0.9-2.9
		c0.1-0.8,0.5-1.6,1.3-2.1l0.7,1.1c-0.5,0.4-0.7,0.8-0.8,1.3c-0.1,0.5,0.1,1.1,0.7,1.9c0.4,0.6,0.8,0.9,1.2,1c0.4,0.1,0.8,0.1,1-0.1
		c0.3-0.2,0.5-0.4,0.5-0.6c0.1-0.2,0.1-0.5,0-0.7c-0.1-0.3-0.2-0.6-0.3-1l-0.2-0.4c-0.1-0.2-0.1-0.4-0.2-0.5c-0.2-0.6-0.4-1-0.5-1.4
		s-0.1-0.8,0-1.2c0.1-0.4,0.4-0.7,0.9-1c0.4-0.2,0.8-0.4,1.2-0.4c0.5,0,0.9,0.2,1.4,0.4c0.5,0.3,0.9,0.7,1.2,1.2
		c0.6,0.8,0.8,1.7,0.7,2.4c-0.1,0.8-0.4,1.4-1.1,1.9l-0.7-1.1c0.3-0.3,0.5-0.7,0.6-1.1c0.1-0.4-0.1-0.9-0.5-1.5
		c-0.3-0.5-0.7-0.8-1-1c-0.4-0.2-0.7-0.1-1,0.1c-0.2,0.1-0.4,0.3-0.4,0.6c0,0.2,0,0.4,0,0.7c0.1,0.2,0.2,0.6,0.3,1l0.2,0.5
		C99.5,34.3,99.7,34.7,99.9,35.4z M103.7,42.8c0.1,0.7,0.1,1.3-0.2,1.8c-0.2,0.5-0.7,0.9-1.3,1.1c-0.5,0.2-0.9,0.3-1.4,0.1
		c-0.5-0.1-0.9-0.4-1.3-0.7c-0.4-0.4-0.7-0.9-1-1.5c-0.5-1.2-0.6-2.2-0.4-3c0.2-0.8,0.8-1.4,1.7-1.9l0.5,1.2
		c-0.5,0.3-0.9,0.7-1.1,1.1s-0.1,1.1,0.3,2c0.3,0.6,0.6,1,1,1.2c0.4,0.2,0.7,0.2,1,0.1c0.3-0.1,0.5-0.3,0.6-0.5
		c0.1-0.2,0.2-0.5,0.1-0.7c0-0.3-0.1-0.6-0.1-1.1l-0.1-0.5c0-0.2-0.1-0.4-0.1-0.5c-0.1-0.6-0.2-1.1-0.2-1.5c0-0.4,0.1-0.8,0.2-1.1
		c0.2-0.4,0.5-0.7,1-0.9c0.4-0.2,0.8-0.2,1.3-0.1c0.4,0.1,0.9,0.3,1.3,0.7c0.4,0.4,0.7,0.8,1,1.4c0.4,0.9,0.5,1.8,0.3,2.5
		s-0.7,1.3-1.4,1.7l-0.5-1.2c0.4-0.3,0.6-0.6,0.8-0.9c0.1-0.4,0.1-0.9-0.2-1.6c-0.2-0.5-0.5-0.9-0.8-1.1s-0.6-0.3-1-0.1
		c-0.2,0.1-0.4,0.3-0.5,0.5c-0.1,0.2-0.1,0.4-0.1,0.7c0,0.3,0.1,0.6,0.2,1l0.1,0.5C103.5,41.8,103.6,42.2,103.7,42.8z M109.5,59
		l-5.2,0.1c-0.4,0-0.7,0.1-0.8,0.3c-0.2,0.2-0.2,0.5-0.2,0.9c0,0.2,0,0.3,0,0.5l-1.2,0c-0.1-0.3-0.1-0.6-0.1-1
		c0-0.6,0.1-1.1,0.4-1.5c0.3-0.4,0.9-0.6,1.7-0.6l5.3-0.2l0-1.3l1.2,0l0,1.3l2.9-0.1l0,1.3l-2.9,0.1l0,1.7l-1.2,0L109.5,59z
		 M109.4,69.1c-0.5,0.5-1.3,0.7-2.2,0.5l-5.9-0.8l0.2-1.3l5.6,0.7c0.6,0.1,1.1,0,1.5-0.3c0.4-0.3,0.6-0.7,0.7-1.3
		c0.1-0.7,0-1.4-0.4-1.9s-0.9-0.8-1.5-0.9l-5.3-0.7l0.2-1.3l11.9,1.5l-0.2,1.3l-4.4-0.6l0,0c0.3,0.3,0.6,0.7,0.8,1.2
		c0.2,0.5,0.2,1.1,0.1,1.7C110.3,68,110,68.6,109.4,69.1z M100.7,75.7c0.2,0.5,0.5,0.9,0.9,1.1l-0.4,1.3c-0.7-0.5-1.2-1.1-1.5-1.9
		c-0.3-0.8-0.3-1.7,0-2.6c0.3-0.8,0.7-1.5,1.2-1.9c0.6-0.5,1.2-0.8,2-0.9c0.8-0.1,1.6,0,2.4,0.3c1.3,0.5,2.3,1.2,2.8,2.1
		c0.5,1,0.6,2,0.2,3.2c-0.4,1.3-1.1,2.1-2.2,2.4c-1,0.4-2.3,0.3-3.7-0.2l2.2-6.4c-0.5-0.2-1-0.2-1.5-0.2c-0.5,0.1-0.9,0.2-1.3,0.6
		c-0.4,0.3-0.7,0.7-0.9,1.3C100.5,74.6,100.5,75.2,100.7,75.7z M107.2,74.6c-0.1-0.5-0.3-0.9-0.6-1.2c-0.3-0.4-0.7-0.6-1.1-0.7
		l-1.7,5.1c0.4,0.1,0.9,0.2,1.3,0.1c0.4-0.1,0.8-0.3,1.2-0.6c0.3-0.3,0.6-0.7,0.8-1.2S107.3,75,107.2,74.6z M100.8,95.6l-3.3-3.1
		l0,0c0.2,1.1-0.1,2-0.9,2.9c-0.5,0.5-1.1,0.9-1.7,1c-0.7,0.2-1.4,0.1-2.1-0.1c-0.7-0.2-1.4-0.7-2.1-1.3c-0.7-0.6-1.1-1.3-1.4-2
		c-0.3-0.7-0.3-1.4-0.2-2.1c0.1-0.7,0.5-1.3,1-1.8c0.8-0.8,1.7-1.2,2.8-1.1l0,0l-0.8-0.7l0.9-1l8.7,8.3L100.8,95.6z M91,89.8
		c-0.4,0.4-0.6,0.9-0.7,1.4c-0.1,0.5,0,1,0.3,1.5s0.6,0.9,1,1.4c0.4,0.4,0.9,0.7,1.4,0.9c0.5,0.2,1,0.3,1.5,0.2
		c0.5-0.1,1-0.3,1.3-0.7c0.6-0.6,0.8-1.2,0.6-2c-0.1-0.8-0.5-1.5-1.3-2.2c-0.7-0.7-1.5-1.1-2.2-1.2C92.2,89,91.5,89.2,91,89.8z
		 M86.1,103.6l-4.9-7l1.1-0.8l0.6,0.8l0,0c0-0.4,0.1-0.9,0.4-1.4c0.2-0.5,0.6-0.9,1.2-1.3c0.7-0.5,1.4-0.7,2.1-0.6
		c0.7,0.1,1.3,0.5,1.9,1.3l3.4,4.9l-1.1,0.8l-3.2-4.6c-0.3-0.5-0.7-0.8-1.2-0.9c-0.5-0.1-0.9,0-1.5,0.4c-0.6,0.4-1,1-1.1,1.6
		s0,1.2,0.4,1.8l3.1,4.4L86.1,103.6z M81.2,104.7L79,100c-0.2-0.4-0.4-0.6-0.6-0.6c-0.2-0.1-0.6,0-1,0.2c-0.2,0.1-0.3,0.2-0.4,0.2
		l-0.5-1.1c0.2-0.2,0.5-0.4,0.9-0.5c0.6-0.3,1.1-0.3,1.6-0.2c0.5,0.1,0.9,0.6,1.2,1.3l2.3,4.8l1.1-0.6l0.5,1.1l-1.1,0.6l1.2,2.6
		l-1.2,0.6l-1.3-2.6l-1.5,0.7l-0.5-1.1L81.2,104.7z M76.3,106.7l-1.7-4.9c-0.1-0.4-0.3-0.6-0.6-0.7c-0.2-0.1-0.6-0.1-1,0.1
		c-0.2,0.1-0.3,0.1-0.4,0.2l-0.4-1.1c0.3-0.2,0.6-0.3,0.9-0.4c0.6-0.2,1.1-0.2,1.6,0c0.4,0.2,0.8,0.7,1.1,1.4l1.8,5l1.2-0.4l0.4,1.1
		l-1.2,0.4l1,2.7l-1.3,0.5l-1-2.7l-1.6,0.6l-0.4-1.1L76.3,106.7z M67.7,101.1c0.9-0.2,1.6-0.1,2.3,0.2c0.7,0.3,1.3,0.7,1.7,1.3
		c0.5,0.6,0.8,1.4,0.9,2.2c0.2,0.9,0.1,1.7-0.1,2.4c-0.2,0.7-0.6,1.3-1.1,1.8c-0.6,0.5-1.3,0.8-2.1,1c-0.8,0.2-1.6,0.1-2.3-0.2
		c-0.7-0.3-1.3-0.7-1.7-1.3c-0.5-0.6-0.8-1.4-0.9-2.2c-0.2-0.9-0.1-1.7,0.1-2.4c0.2-0.7,0.6-1.3,1.1-1.8
		C66.1,101.6,66.8,101.3,67.7,101.1z M67.9,102.3c-0.9,0.2-1.5,0.6-1.9,1.3c-0.4,0.7-0.5,1.5-0.3,2.5c0.2,1,0.6,1.7,1.2,2.2
		c0.6,0.5,1.3,0.7,2.2,0.5c0.9-0.2,1.5-0.6,1.9-1.3c0.4-0.7,0.5-1.5,0.3-2.5c-0.2-1-0.6-1.7-1.2-2.2
		C69.5,102.3,68.8,102.1,67.9,102.3z M56.4,110.1c-0.5-0.5-0.8-1.2-0.8-2.1l0.1-6l1.3,0l-0.1,5.7c0,0.6,0.1,1.1,0.4,1.4
		c0.3,0.4,0.8,0.6,1.4,0.6c0.8,0,1.4-0.2,1.8-0.6c0.5-0.4,0.7-1,0.7-1.6l0.1-5.4l1.3,0l-0.1,8.6l-1.3,0l0-1h0
		c-0.3,0.4-0.7,0.6-1.1,0.9c-0.5,0.2-1,0.3-1.7,0.3C57.6,110.8,57,110.6,56.4,110.1z M40.1,106.6l0.5-1l0,0c-1,0.5-2,0.5-3,0
		c-0.6-0.3-1.1-0.8-1.5-1.3c-0.4-0.6-0.6-1.3-0.6-2c0-0.8,0.2-1.6,0.6-2.4c0.4-0.8,0.9-1.5,1.5-1.9c0.6-0.5,1.3-0.7,1.9-0.8
		c0.7-0.1,1.3,0,2,0.4c1.1,0.5,1.7,1.3,1.9,2.4l0,0l1.7-3.6l1.2,0.6l-5,10.3L40.1,106.6z M41.1,98.6c-0.5-0.2-1-0.3-1.5-0.2
		c-0.5,0.1-1,0.3-1.4,0.7c-0.4,0.4-0.7,0.8-1,1.3c-0.3,0.5-0.4,1.1-0.4,1.6c0,0.5,0.1,1,0.3,1.5c0.2,0.5,0.6,0.8,1.1,1.1
		c0.7,0.3,1.4,0.3,2.1,0c0.7-0.3,1.2-1,1.7-1.9c0.4-0.9,0.6-1.7,0.4-2.5C42.2,99.5,41.8,99,41.1,98.6z M28.3,99.9l0.8-1.1l0,0
		c0.1,0.1,0.3,0.2,0.4,0.3c0.6,0.5,1.3,0.6,2,0.4s1.3-0.6,1.8-1.3l2.7-3.7l1.1,0.8l-5,7l-1.1-0.8l1-1.4l0,0
		c-0.6,0.4-1.1,0.6-1.6,0.6c-0.5,0.1-1-0.1-1.5-0.4C28.7,100.2,28.5,100,28.3,99.9z M28.2,89.8c-0.5,0-1,0.1-1.4,0.3l-1-0.9
		c0.8-0.4,1.6-0.6,2.4-0.6c0.8,0.1,1.6,0.5,2.3,1.2c0.6,0.6,1,1.3,1.2,2c0.2,0.7,0.2,1.4-0.1,2.2c-0.2,0.7-0.7,1.4-1.3,2
		c-1,1-2,1.5-3.1,1.6c-1.1,0.1-2.1-0.4-3-1.3c-0.9-0.9-1.4-1.9-1.2-3c0.1-1.1,0.7-2.2,1.8-3.3l4.8,4.8c0.4-0.4,0.6-0.8,0.8-1.3
		c0.2-0.5,0.2-1,0.1-1.4c-0.1-0.5-0.4-0.9-0.8-1.4C29.3,90.1,28.7,89.8,28.2,89.8z M26.4,96.2c0.5,0.1,0.9,0.1,1.4,0
		c0.4-0.1,0.8-0.3,1.1-0.7L25,91.7c-0.3,0.3-0.5,0.7-0.7,1.1c-0.1,0.4-0.1,0.9,0,1.3c0.1,0.4,0.4,0.9,0.8,1.2
		C25.5,95.8,25.9,96,26.4,96.2z M20.6,85.4c-0.3-0.7-0.3-1.2-0.2-1.8c0.1-0.5,0.5-1,1-1.4c0.4-0.3,0.9-0.4,1.4-0.4
		c0.5,0,1,0.2,1.4,0.5c0.5,0.3,0.9,0.7,1.3,1.2c0.7,1,1,2,1,2.8c-0.1,0.8-0.5,1.6-1.3,2.2l-0.8-1.1c0.5-0.4,0.7-0.8,0.8-1.3
		c0.1-0.5-0.1-1.1-0.7-1.9c-0.4-0.6-0.8-0.9-1.2-1c-0.4-0.1-0.8-0.1-1,0.1s-0.4,0.4-0.5,0.7c-0.1,0.2-0.1,0.5,0,0.7
		c0.1,0.3,0.2,0.6,0.3,1l0.2,0.4c0.1,0.2,0.2,0.4,0.2,0.5c0.2,0.6,0.4,1,0.5,1.4c0.1,0.4,0.1,0.8,0,1.2c-0.1,0.4-0.4,0.7-0.8,1.1
		c-0.4,0.3-0.8,0.4-1.2,0.4c-0.5,0-0.9-0.1-1.4-0.4C19,90,18.6,89.6,18.2,89c-0.6-0.8-0.8-1.6-0.8-2.4c0.1-0.8,0.4-1.4,1-1.9
		l0.8,1.1c-0.3,0.3-0.5,0.7-0.6,1.1c-0.1,0.4,0.1,0.9,0.5,1.5c0.3,0.5,0.7,0.8,1,1s0.7,0.1,1-0.1c0.2-0.2,0.4-0.3,0.4-0.6
		c0-0.2,0-0.4,0-0.7c-0.1-0.2-0.2-0.6-0.4-1L21,86.5C21,86.4,20.8,86.1,20.6,85.4z M16.7,78c-0.1-0.7-0.1-1.3,0.1-1.8
		c0.2-0.5,0.6-0.9,1.2-1.2c0.5-0.2,0.9-0.3,1.4-0.2c0.5,0.1,0.9,0.3,1.3,0.7c0.4,0.4,0.7,0.9,1,1.5c0.5,1.2,0.7,2.1,0.4,3
		c-0.2,0.8-0.8,1.4-1.6,1.9l-0.6-1.2c0.5-0.3,0.9-0.7,1-1.1c0.2-0.5,0.1-1.1-0.4-2c-0.3-0.6-0.6-1-1-1.2c-0.4-0.2-0.7-0.2-1-0.1
		c-0.3,0.1-0.5,0.3-0.6,0.5c-0.1,0.2-0.2,0.5-0.1,0.7c0,0.3,0.1,0.6,0.2,1.1l0.1,0.5c0.1,0.2,0.1,0.4,0.1,0.5
		c0.1,0.6,0.2,1.1,0.2,1.5c0,0.4,0,0.8-0.2,1.1c-0.2,0.4-0.5,0.7-1,0.9c-0.4,0.2-0.8,0.2-1.3,0.2c-0.4-0.1-0.9-0.3-1.3-0.7
		s-0.7-0.8-1-1.4c-0.4-0.9-0.5-1.8-0.3-2.5c0.2-0.7,0.7-1.3,1.3-1.7l0.6,1.2c-0.4,0.3-0.6,0.6-0.8,1c-0.1,0.4-0.1,0.9,0.2,1.5
		c0.2,0.5,0.5,0.9,0.9,1.1s0.7,0.2,1,0.1c0.2-0.1,0.4-0.3,0.5-0.5c0.1-0.2,0.1-0.4,0.1-0.7c0-0.3-0.1-0.6-0.2-1l-0.1-0.5
		C16.9,79.1,16.8,78.7,16.7,78z M10.6,62l5.2-0.2c0.4,0,0.7-0.1,0.8-0.3c0.1-0.2,0.2-0.5,0.2-1c0-0.2,0-0.3,0-0.5l1.2-0.1
		c0.1,0.3,0.1,0.6,0.1,1c0,0.6-0.1,1.1-0.4,1.5c-0.3,0.4-0.9,0.6-1.7,0.6l-5.3,0.3l0.1,1.3l-1.2,0.1l-0.1-1.3l-2.9,0.1l-0.1-1.3
		L9.4,62l-0.1-1.7l1.2-0.1L10.6,62z M10.4,51.8c0.5-0.5,1.3-0.7,2.2-0.6l6,0.6l-0.1,1.3l-5.6-0.6c-0.6-0.1-1.1,0-1.5,0.3
		c-0.4,0.3-0.6,0.7-0.7,1.3c-0.1,0.7,0.1,1.4,0.4,1.9c0.4,0.5,0.9,0.8,1.6,0.9l5.3,0.6l-0.1,1.3l-12-1.3L6,56.3l4.4,0.5l0,0
		c-0.3-0.3-0.6-0.7-0.8-1.2c-0.2-0.5-0.2-1.1-0.2-1.7C9.6,53,9.9,52.3,10.4,51.8z M19,45.1c-0.2-0.5-0.5-0.9-0.9-1.1l0.4-1.3
		c0.7,0.5,1.3,1.1,1.6,1.9c0.3,0.8,0.3,1.6,0,2.6c-0.3,0.8-0.7,1.5-1.2,2c-0.5,0.5-1.2,0.8-2,0.9c-0.8,0.1-1.6,0-2.4-0.2
		c-1.3-0.4-2.3-1.1-2.8-2.1c-0.5-0.9-0.6-2-0.2-3.2c0.4-1.3,1.1-2.1,2.1-2.5c1-0.4,2.3-0.3,3.7,0.1l-2,6.5c0.5,0.2,1,0.2,1.5,0.1
		c0.5-0.1,0.9-0.3,1.3-0.6s0.7-0.8,0.9-1.3C19.2,46.2,19.3,45.6,19,45.1z M12.5,46.4c0.1,0.5,0.3,0.9,0.6,1.2
		c0.3,0.3,0.7,0.6,1.1,0.7l1.6-5.2C15.4,43,15,43,14.5,43.1c-0.4,0.1-0.8,0.3-1.2,0.6c-0.3,0.3-0.6,0.7-0.7,1.2
		C12.5,45.4,12.4,45.9,12.5,46.4z M18.5,25.2l3.4,3.1l0,0c-0.2-1.1,0-2,0.8-2.9c0.5-0.5,1.1-0.9,1.7-1.1c0.7-0.2,1.4-0.2,2.1,0
		c0.7,0.2,1.4,0.6,2.1,1.2c0.7,0.6,1.2,1.3,1.4,2c0.3,0.7,0.3,1.4,0.2,2.1c-0.1,0.7-0.4,1.3-0.9,1.8c-0.8,0.8-1.7,1.2-2.8,1.1l0,0
		l0.8,0.7l-0.9,1l-8.9-8.1L18.5,25.2z M28.4,30.8c0.4-0.4,0.6-0.9,0.6-1.4c0-0.5-0.1-1-0.3-1.5c-0.2-0.5-0.6-0.9-1-1.3
		c-0.4-0.4-0.9-0.7-1.4-0.9c-0.5-0.2-1-0.3-1.5-0.2c-0.5,0.1-0.9,0.3-1.3,0.7c-0.5,0.6-0.7,1.3-0.6,2s0.6,1.5,1.3,2.2
		c0.7,0.7,1.5,1.1,2.3,1.1C27.3,31.6,27.9,31.4,28.4,30.8z M33.1,16.9l5,6.9L37,24.7l-0.6-0.8l0,0c0,0.4-0.1,0.9-0.4,1.4
		c-0.2,0.5-0.6,0.9-1.2,1.3c-0.7,0.5-1.4,0.7-2.1,0.6c-0.7-0.1-1.3-0.5-1.9-1.2l-3.5-4.8l1.1-0.8l3.3,4.6c0.3,0.5,0.8,0.8,1.2,0.9
		c0.5,0.1,0.9,0,1.5-0.4c0.6-0.4,1-1,1.1-1.6c0.1-0.6,0-1.2-0.4-1.7L32,17.7L33.1,16.9z M37.9,15.7l2.3,4.6c0.2,0.4,0.4,0.6,0.6,0.6
		c0.2,0.1,0.6,0,0.9-0.2c0.2-0.1,0.3-0.2,0.4-0.2l0.5,1c-0.2,0.2-0.5,0.4-0.9,0.6c-0.6,0.3-1.1,0.4-1.5,0.2
		c-0.5-0.1-0.9-0.6-1.3-1.3l-2.4-4.7l-1.1,0.6l-0.5-1l1.1-0.6l-1.3-2.5l1.2-0.6l1.3,2.5l1.5-0.8l0.5,1L37.9,15.7z M42.8,13.6
		l1.8,4.8c0.1,0.4,0.3,0.6,0.6,0.7c0.2,0.1,0.6,0,1-0.1c0.2-0.1,0.3-0.1,0.4-0.2l0.4,1.1c-0.3,0.2-0.6,0.3-0.9,0.5
		c-0.6,0.2-1.1,0.3-1.6,0.1c-0.4-0.2-0.8-0.7-1.1-1.4l-1.9-5l-1.2,0.4l-0.4-1.1l1.2-0.4l-1-2.7l1.3-0.5l1,2.7l1.6-0.6l0.4,1.1
		L42.8,13.6z M51.5,19c-0.8,0.2-1.6,0.1-2.3-0.1c-0.7-0.2-1.3-0.7-1.7-1.3c-0.5-0.6-0.8-1.3-1-2.2c-0.2-0.9-0.2-1.7,0-2.4
		c0.2-0.7,0.6-1.4,1.1-1.9c0.5-0.5,1.2-0.8,2.1-1c0.8-0.2,1.6-0.1,2.3,0.1c0.7,0.2,1.3,0.7,1.7,1.3c0.5,0.6,0.8,1.3,1,2.2
		c0.2,0.9,0.2,1.7,0,2.4c-0.2,0.7-0.6,1.4-1.1,1.9C53,18.5,52.4,18.9,51.5,19z M51.3,17.9c0.9-0.2,1.5-0.6,1.9-1.3
		c0.4-0.7,0.4-1.5,0.2-2.5s-0.6-1.7-1.2-2.2c-0.6-0.5-1.4-0.7-2.3-0.5C49,11.5,48.4,12,48,12.7c-0.4,0.7-0.4,1.6-0.2,2.5
		c0.2,1,0.6,1.7,1.2,2.2C49.6,17.9,50.4,18.1,51.3,17.9z M62.6,9.8c0.5,0.5,0.8,1.2,0.8,2.1l0.1,6l-1.3,0l-0.1-5.7
		c0-0.6-0.2-1.1-0.5-1.4c-0.3-0.4-0.8-0.5-1.4-0.5c-0.8,0-1.4,0.2-1.8,0.7c-0.5,0.4-0.7,1-0.7,1.7l0.1,5.3l-1.3,0l-0.1-8.6l1.3,0
		l0,1l0,0c0.3-0.4,0.6-0.7,1.1-0.9c0.5-0.2,1-0.4,1.7-0.4C61.3,9.1,62,9.3,62.6,9.8z"/>
</g>
<g id="cursorbg">
	<path class="st0" d="M61.7,76c-3.9,0-7.1-1.8-9.5-5.4c-1.9-2.9-2.9-6.2-3.5-8.5c-0.1-0.4-0.2-0.8-0.3-1.1c-0.3-0.9-0.1-1.5,0.1-1.9
		c0.3-0.5,0.7-0.8,1.3-1c0.2-0.1,0.4-0.1,0.6-0.1c0.9,0,1.7,0.6,2.1,1.6c0.5,1.3,0.9,2.5,1.3,3.7c0.1,0.2,0.1,0.3,0.1,0.3
		c0,0,0,0,0,0c0,0,0,0,0,0c0-0.1,0-0.3,0-0.4c0-3.5,0-13.8,0-17.1c0-0.7,0.2-1.3,0.7-1.7c0.4-0.4,1-0.6,1.6-0.6
		c0.8,0,1.4,0.4,1.8,1.1c0.3,0.6,0.3,1.1,0.3,1.3c0,3.2,0,8,0,10.3c0,0.7,0,1.1,0,1.3c0,0,0,0,0,0c0-0.5,0-3.2,0-4.6
		c0-0.7,0.2-1.3,0.5-1.7c0.4-0.5,1-0.7,1.6-0.7c0,0,0,0,0.1,0c0.6,0,1.2,0.3,1.5,0.7c0.4,0.4,0.5,1,0.5,1.7c0,1.8,0,3.5,0,5
		c0,0.1,0,0.2,0,0.2c0,0,0,0,0,0c0,0,0-0.1,0-0.2c0-1.3,0-2.2,0-3.4c0-0.7,0.2-1.2,0.6-1.7c0.4-0.4,1-0.7,1.6-0.7l0,0
		c0.6,0,1.2,0.3,1.6,0.7c0.3,0.4,0.5,1,0.6,1.7c0,0.7,0,1.5,0,2.2c0,0.6,0,1.2,0,1.8c0,0.1,0,0.2,0,0.3c0,0,0-0.1,0-0.3
		c0-0.8,0-1.6,0-2.3c0-0.1,0-0.2,0-0.3c0-0.8,0.4-1.2,0.6-1.5c0.3-0.3,0.8-0.5,1.3-0.5c0.7,0,1.4,0.3,1.8,0.7
		c0.3,0.3,0.5,0.7,0.5,1.1c0.1,0.4,0.1,1.1,0.2,1.7c0.1,1,0.2,2.5,0.1,4.2c0,1.9-0.3,3.7-0.6,5.3c-0.5,2-1.2,3.7-2.1,5
		c-0.8,1.1-1.8,2-2.9,2.6C64.8,75.7,63.4,76,61.7,76z"/>
</g>
<g id="cursorol">
	<path d="M56.2,44.7c1.2,0,1.3,1.3,1.3,1.7c0,4.2,0,10.9,0,11.6c0,0.5,0.4,0.7,0.8,0.7c0.4,0,0.7-0.2,0.7-0.7c0-0.1,0-3,0-4.6
		c0-1,0.5-1.7,1.4-1.7c0,0,0,0,0,0c0.8,0,1.4,0.6,1.4,1.7c0,1.7,0,3.3,0,5c0,0.5,0.1,1,0.8,1c0,0,0,0,0,0c0.5,0,0.8-0.4,0.8-0.9
		c0-1.2,0-2.2,0-3.4c0-1,0.6-1.6,1.5-1.6c0,0,0,0,0,0c0.8,0,1.4,0.6,1.4,1.7c0,1.3,0,2.7,0,4c0,0.5,0.1,1,0.7,1c0,0,0,0,0.1,0
		c0.6,0,0.8-0.5,0.8-1.1c0-0.9,0-1.7,0-2.6c0-0.9,0.6-1.3,1.2-1.3c0.8,0,1.6,0.5,1.6,1.1c0,0.1,3,18.9-8.9,18.9
		c-9.3,0-11.5-10.8-12.6-14.4c-0.3-1,0.1-1.7,0.9-1.9c0.1,0,0.2-0.1,0.4-0.1c0.6,0,1.1,0.4,1.4,1.1c0.5,1.2,0.9,2.5,1.3,3.7
		c0.2,0.4,0.3,0.8,0.8,0.8c0.1,0,0.1,0,0.2,0c0.6-0.1,0.7-0.6,0.7-1.1c0-3.3,0-13.8,0-17.1C54.7,45.6,55.2,44.7,56.2,44.7
		 M56.2,43.2c-0.4,0-0.8,0.1-1.2,0.2c-0.3,0.1-0.7,0.4-0.9,0.6c-0.6,0.6-0.9,1.4-0.9,2.3c0,2.5,0,8.8,0,13.4c0-0.1,0-0.1-0.1-0.2
		c-0.2-0.6-0.6-1.1-1.1-1.5c-0.5-0.4-1.1-0.6-1.7-0.6c-0.3,0-0.5,0-0.8,0.1c-0.4,0.1-0.7,0.3-1,0.5c-0.3,0.2-0.6,0.5-0.7,0.9
		c-0.3,0.5-0.5,1.3-0.2,2.4c0.1,0.3,0.2,0.7,0.3,1.1c0.3,1.1,0.7,2.5,1.3,4c0.7,1.8,1.4,3.3,2.3,4.7c0.5,0.8,1.1,1.5,1.7,2.2
		c0.7,0.7,1.5,1.3,2.2,1.8c1.8,1.1,3.9,1.7,6.1,1.7c1.7,0,3.3-0.4,4.7-1.1c1.2-0.6,2.3-1.6,3.2-2.8c1-1.4,1.8-3.2,2.2-5.2
		c0.4-1.6,0.6-3.4,0.6-5.4c0-1.7-0.1-3.3-0.1-4.3c-0.1-0.6-0.1-1-0.1-1.3c0-0.2,0-0.3-0.1-0.4c0-0.5-0.3-1.1-0.7-1.5
		c-0.3-0.3-0.7-0.5-1.1-0.7c-0.4-0.2-0.9-0.3-1.3-0.3c-0.3,0-0.6,0-0.9,0.1c-0.2,0.1-0.3,0.1-0.5,0.2c-0.1-0.4-0.3-0.8-0.6-1.1
		c-0.5-0.6-1.3-1-2.1-1l0,0c-0.6,0-1.2,0.2-1.7,0.5c-0.1-0.5-0.3-0.9-0.6-1.2c-0.5-0.6-1.3-1-2.1-1c0,0-0.1,0-0.1,0
		c-0.5,0-1,0.1-1.4,0.4c0-1.5,0-3,0-4.2c0-0.3,0-0.9-0.4-1.6c-0.2-0.4-0.5-0.8-0.9-1.1C57.3,43.4,56.8,43.2,56.2,43.2L56.2,43.2z"/>
</g>
</svg>
